<?xml version="1.0" standalone="no"?>
<!DOCTYPE svg PUBLIC "-//W3C//DTD SVG 20010904//EN"
 "http://www.w3.org/TR/2001/REC-SVG-20010904/DTD/svg10.dtd">
<svg version="1.0" xmlns="http://www.w3.org/2000/svg"
 width="375.000000pt" height="125.000000pt" viewBox="0 0 375.000000 125.000000"
 preserveAspectRatio="xMidYMid meet">

<g transform="translate(0.000000,125.000000) scale(0.100000,-0.100000)"
fill="#000000" stroke="none">
<path d="M663 1150 c-87 -18 -158 -69 -199 -142 l-29 -53 0 -320 c0 -304 1
-322 21 -365 28 -60 77 -107 144 -138 51 -24 67 -26 242 -30 163 -4 191 -2
213 12 30 19 32 46 7 69 -16 14 -44 17 -188 17 -190 0 -231 8 -280 53 -48 44
-53 78 -54 310 l0 197 485 0 485 0 0 -73 c0 -59 4 -77 18 -90 23 -21 41 -21
71 -1 23 16 23 18 19 188 -3 167 -4 172 -32 224 -32 57 -72 92 -144 125 -45
21 -60 22 -392 24 -190 1 -364 -2 -387 -7z m720 -101 c76 -21 126 -91 127
-176 l0 -23 -485 0 -485 0 0 23 c1 82 44 147 116 172 49 18 666 21 727 4z"/>
<path d="M642 968 c-15 -15 -15 -51 0 -66 27 -27 98 -2 98 35 0 33 -73 56 -98
31z"/>
<path d="M786 958 c-13 -19 -14 -25 -2 -43 27 -41 96 -27 96 19 0 48 -66 65
-94 24z"/>
<path d="M936 964 c-21 -21 -20 -37 3 -58 29 -26 73 -17 85 16 7 19 6 31 -4
42 -16 21 -64 20 -84 0z"/>
<path d="M1854 755 c-156 -78 -167 -328 -19 -420 46 -29 53 -30 159 -30 63 1
123 6 139 13 l27 12 0 120 0 120 -95 0 -95 0 0 -45 0 -45 40 0 40 0 0 -45 c0
-42 -1 -44 -34 -51 -44 -8 -96 9 -127 42 -19 20 -24 38 -27 95 -5 80 8 120 47
146 34 23 116 22 160 -1 37 -20 43 -16 65 35 l15 37 -37 18 c-24 12 -66 20
-122 22 -75 3 -91 0 -136 -23z"/>
<path d="M2240 540 l0 -240 65 0 65 0 0 240 0 240 -65 0 -65 0 0 -240z"/>
<path d="M2533 760 c-57 -25 -83 -69 -83 -138 0 -74 30 -102 142 -132 122 -32
151 -67 81 -96 -30 -13 -47 -14 -92 -5 -30 6 -65 18 -79 27 -13 8 -25 14 -27
12 -14 -16 -35 -73 -31 -83 8 -22 104 -45 185 -45 128 1 201 52 201 143 0 77
-49 121 -162 146 -72 16 -98 31 -98 56 0 13 7 29 17 36 25 21 104 16 148 -10
41 -24 45 -22 65 28 12 30 12 35 -5 47 -52 38 -193 46 -262 14z"/>
<path d="M2860 730 l0 -50 70 0 70 0 0 -190 0 -190 65 0 65 0 0 190 0 190 70
0 70 0 0 50 0 50 -205 0 -205 0 0 -50z"/>
<path d="M1152 662 c-73 -26 -122 -68 -155 -133 -63 -120 -8 -252 131 -316 46
-21 64 -25 130 -21 45 2 91 10 110 20 l33 17 72 -65 c39 -35 79 -64 87 -64 24
0 60 29 60 48 0 9 -32 46 -71 82 l-72 66 22 42 c44 86 20 194 -57 264 -79 72
-192 95 -290 60z m179 -102 c52 -27 79 -72 79 -134 0 -43 -4 -53 -38 -86 -111
-111 -302 -43 -289 103 9 109 141 171 248 117z"/>
</g>
</svg>
